<mxfile host="app.diagrams.net" agent="Mozilla/5.0 (Windows NT 10.0; Win64; x64) AppleWebKit/537.36 (KHTML, like Gecko) Chrome/132.0.0.0 Safari/537.36" version="26.0.14">
  <diagram name="Page-1" id="13e1069c-82ec-6db2-03f1-153e76fe0fe0">
    <mxGraphModel dx="1216" dy="-208" grid="1" gridSize="10" guides="1" tooltips="1" connect="1" arrows="1" fold="1" page="1" pageScale="1" pageWidth="1100" pageHeight="850" background="none" math="0" shadow="0">
      <root>
        <mxCell id="0" />
        <mxCell id="1" parent="0" />
        <mxCell id="VIogoXOi0CyeV9zDtBec-1" value="Provisioning&lt;div&gt;Team&lt;/div&gt;" style="shape=umlActor;verticalLabelPosition=bottom;verticalAlign=top;html=1;outlineConnect=0;" vertex="1" parent="1">
          <mxGeometry x="160" y="1200" width="30" height="60" as="geometry" />
        </mxCell>
        <mxCell id="VIogoXOi0CyeV9zDtBec-2" value="" style="whiteSpace=wrap;html=1;aspect=flexible;" vertex="1" parent="1">
          <mxGeometry x="240" y="920" width="440" height="610" as="geometry" />
        </mxCell>
        <mxCell id="VIogoXOi0CyeV9zDtBec-3" value="LOGIN" style="rounded=1;whiteSpace=wrap;html=1;" vertex="1" parent="1">
          <mxGeometry x="276" y="1216" width="90" height="40" as="geometry" />
        </mxCell>
        <mxCell id="VIogoXOi0CyeV9zDtBec-4" value="Activate New Internet Service" style="rounded=1;whiteSpace=wrap;html=1;" vertex="1" parent="1">
          <mxGeometry x="410" y="1010" width="90" height="40" as="geometry" />
        </mxCell>
        <mxCell id="VIogoXOi0CyeV9zDtBec-8" value="&lt;font style=&quot;font-size: 11px;&quot;&gt;Check Availability IP &amp;amp; VLAN in Inventory&lt;/font&gt;" style="rounded=1;whiteSpace=wrap;html=1;" vertex="1" parent="1">
          <mxGeometry x="560" y="938" width="90" height="40" as="geometry" />
        </mxCell>
        <mxCell id="VIogoXOi0CyeV9zDtBec-10" value="" style="endArrow=classic;html=1;rounded=0;" edge="1" parent="1">
          <mxGeometry width="50" height="50" relative="1" as="geometry">
            <mxPoint x="200" y="1235" as="sourcePoint" />
            <mxPoint x="270" y="1234.5" as="targetPoint" />
          </mxGeometry>
        </mxCell>
        <mxCell id="VIogoXOi0CyeV9zDtBec-12" value="&lt;font style=&quot;font-size: 11px;&quot;&gt;Configure&lt;/font&gt;&lt;div&gt;&lt;font style=&quot;font-size: 11px;&quot;&gt;Sub-Interface on Router Gateway&lt;/font&gt;&lt;/div&gt;" style="rounded=1;whiteSpace=wrap;html=1;" vertex="1" parent="1">
          <mxGeometry x="560" y="1038" width="90" height="40" as="geometry" />
        </mxCell>
        <mxCell id="VIogoXOi0CyeV9zDtBec-13" value="&lt;font style=&quot;font-size: 11px;&quot;&gt;Check Availability Interface in Device&lt;/font&gt;" style="rounded=1;whiteSpace=wrap;html=1;" vertex="1" parent="1">
          <mxGeometry x="560" y="988" width="90" height="40" as="geometry" />
        </mxCell>
        <mxCell id="VIogoXOi0CyeV9zDtBec-14" value="&lt;font style=&quot;font-size: 11px;&quot;&gt;Configure EVPN in L3 Switch&lt;/font&gt;" style="rounded=1;whiteSpace=wrap;html=1;" vertex="1" parent="1">
          <mxGeometry x="560" y="1088" width="90" height="40" as="geometry" />
        </mxCell>
        <mxCell id="VIogoXOi0CyeV9zDtBec-16" value="" style="endArrow=classic;html=1;rounded=0;exitX=1;exitY=0;exitDx=0;exitDy=0;entryX=0;entryY=0.5;entryDx=0;entryDy=0;" edge="1" parent="1" source="VIogoXOi0CyeV9zDtBec-4" target="VIogoXOi0CyeV9zDtBec-8">
          <mxGeometry width="50" height="50" relative="1" as="geometry">
            <mxPoint x="500" y="1100" as="sourcePoint" />
            <mxPoint x="550" y="1050" as="targetPoint" />
          </mxGeometry>
        </mxCell>
        <mxCell id="VIogoXOi0CyeV9zDtBec-17" value="&lt;font style=&quot;font-size: 9px;&quot;&gt;STEP 1&lt;/font&gt;" style="edgeLabel;html=1;align=center;verticalAlign=middle;resizable=0;points=[];" vertex="1" connectable="0" parent="VIogoXOi0CyeV9zDtBec-16">
          <mxGeometry x="-0.2195" relative="1" as="geometry">
            <mxPoint as="offset" />
          </mxGeometry>
        </mxCell>
        <mxCell id="VIogoXOi0CyeV9zDtBec-18" value="" style="endArrow=classic;html=1;rounded=0;exitX=1;exitY=0.25;exitDx=0;exitDy=0;entryX=0;entryY=0.5;entryDx=0;entryDy=0;" edge="1" parent="1" source="VIogoXOi0CyeV9zDtBec-4" target="VIogoXOi0CyeV9zDtBec-13">
          <mxGeometry width="50" height="50" relative="1" as="geometry">
            <mxPoint x="510" y="1020" as="sourcePoint" />
            <mxPoint x="570" y="968" as="targetPoint" />
          </mxGeometry>
        </mxCell>
        <mxCell id="VIogoXOi0CyeV9zDtBec-19" value="&lt;font style=&quot;font-size: 9px;&quot;&gt;STEP 2&lt;/font&gt;" style="edgeLabel;html=1;align=center;verticalAlign=middle;resizable=0;points=[];" vertex="1" connectable="0" parent="VIogoXOi0CyeV9zDtBec-18">
          <mxGeometry x="-0.2195" relative="1" as="geometry">
            <mxPoint as="offset" />
          </mxGeometry>
        </mxCell>
        <mxCell id="VIogoXOi0CyeV9zDtBec-22" value="" style="endArrow=classic;html=1;rounded=0;exitX=1;exitY=0.75;exitDx=0;exitDy=0;entryX=0;entryY=0.5;entryDx=0;entryDy=0;" edge="1" parent="1" source="VIogoXOi0CyeV9zDtBec-4" target="VIogoXOi0CyeV9zDtBec-12">
          <mxGeometry width="50" height="50" relative="1" as="geometry">
            <mxPoint x="510" y="1040" as="sourcePoint" />
            <mxPoint x="570" y="1018" as="targetPoint" />
          </mxGeometry>
        </mxCell>
        <mxCell id="VIogoXOi0CyeV9zDtBec-23" value="&lt;font style=&quot;font-size: 9px;&quot;&gt;STEP 3&lt;/font&gt;" style="edgeLabel;html=1;align=center;verticalAlign=middle;resizable=0;points=[];" vertex="1" connectable="0" parent="VIogoXOi0CyeV9zDtBec-22">
          <mxGeometry x="-0.2195" relative="1" as="geometry">
            <mxPoint as="offset" />
          </mxGeometry>
        </mxCell>
        <mxCell id="VIogoXOi0CyeV9zDtBec-25" value="" style="endArrow=classic;html=1;rounded=0;exitX=1;exitY=1;exitDx=0;exitDy=0;entryX=0;entryY=0.5;entryDx=0;entryDy=0;" edge="1" parent="1" source="VIogoXOi0CyeV9zDtBec-4" target="VIogoXOi0CyeV9zDtBec-14">
          <mxGeometry width="50" height="50" relative="1" as="geometry">
            <mxPoint x="510" y="1040" as="sourcePoint" />
            <mxPoint x="570" y="1068" as="targetPoint" />
          </mxGeometry>
        </mxCell>
        <mxCell id="VIogoXOi0CyeV9zDtBec-26" value="&lt;font style=&quot;font-size: 9px;&quot;&gt;STEP 4&lt;/font&gt;" style="edgeLabel;html=1;align=center;verticalAlign=middle;resizable=0;points=[];" vertex="1" connectable="0" parent="VIogoXOi0CyeV9zDtBec-25">
          <mxGeometry x="-0.2195" relative="1" as="geometry">
            <mxPoint as="offset" />
          </mxGeometry>
        </mxCell>
        <mxCell id="VIogoXOi0CyeV9zDtBec-28" value="" style="endArrow=classic;html=1;rounded=0;entryX=0;entryY=0.5;entryDx=0;entryDy=0;exitX=1;exitY=0.5;exitDx=0;exitDy=0;" edge="1" parent="1" source="VIogoXOi0CyeV9zDtBec-3" target="VIogoXOi0CyeV9zDtBec-4">
          <mxGeometry width="50" height="50" relative="1" as="geometry">
            <mxPoint x="380" y="1236" as="sourcePoint" />
            <mxPoint x="510" y="1160" as="targetPoint" />
            <Array as="points">
              <mxPoint x="380" y="1236" />
              <mxPoint x="380" y="1130" />
              <mxPoint x="380" y="1030" />
            </Array>
          </mxGeometry>
        </mxCell>
        <mxCell id="VIogoXOi0CyeV9zDtBec-29" value="&lt;span style=&quot;font-size: 11px;&quot;&gt;Modify Existing Internet Services&lt;/span&gt;" style="rounded=1;whiteSpace=wrap;html=1;" vertex="1" parent="1">
          <mxGeometry x="410" y="1216" width="90" height="40" as="geometry" />
        </mxCell>
        <mxCell id="VIogoXOi0CyeV9zDtBec-30" value="&lt;font style=&quot;font-size: 11px;&quot;&gt;Modify&lt;/font&gt;&lt;div&gt;&lt;font style=&quot;font-size: 11px;&quot;&gt;Bandwidth&lt;/font&gt;&lt;/div&gt;" style="rounded=1;whiteSpace=wrap;html=1;" vertex="1" parent="1">
          <mxGeometry x="560" y="1164" width="90" height="40" as="geometry" />
        </mxCell>
        <mxCell id="VIogoXOi0CyeV9zDtBec-31" value="&lt;span style=&quot;font-size: 11px;&quot;&gt;Modify&lt;/span&gt;&lt;div&gt;&lt;span style=&quot;font-size: 11px;&quot;&gt;IP ACL&lt;/span&gt;&lt;/div&gt;" style="rounded=1;whiteSpace=wrap;html=1;" vertex="1" parent="1">
          <mxGeometry x="560" y="1264" width="90" height="40" as="geometry" />
        </mxCell>
        <mxCell id="VIogoXOi0CyeV9zDtBec-32" value="&lt;font style=&quot;font-size: 11px;&quot;&gt;Modify&lt;/font&gt;&lt;div&gt;&lt;font style=&quot;font-size: 11px;&quot;&gt;IP Address&lt;/font&gt;&lt;/div&gt;" style="rounded=1;whiteSpace=wrap;html=1;" vertex="1" parent="1">
          <mxGeometry x="560" y="1214" width="90" height="40" as="geometry" />
        </mxCell>
        <mxCell id="VIogoXOi0CyeV9zDtBec-34" value="" style="endArrow=classic;html=1;rounded=0;exitX=1;exitY=0.25;exitDx=0;exitDy=0;entryX=0;entryY=0.5;entryDx=0;entryDy=0;" edge="1" parent="1" source="VIogoXOi0CyeV9zDtBec-29" target="VIogoXOi0CyeV9zDtBec-30">
          <mxGeometry width="50" height="50" relative="1" as="geometry">
            <mxPoint x="500" y="1303" as="sourcePoint" />
            <mxPoint x="550" y="1253" as="targetPoint" />
          </mxGeometry>
        </mxCell>
        <mxCell id="VIogoXOi0CyeV9zDtBec-36" value="" style="endArrow=classic;html=1;rounded=0;exitX=1;exitY=0.5;exitDx=0;exitDy=0;entryX=0;entryY=0.5;entryDx=0;entryDy=0;" edge="1" parent="1" source="VIogoXOi0CyeV9zDtBec-29" target="VIogoXOi0CyeV9zDtBec-32">
          <mxGeometry width="50" height="50" relative="1" as="geometry">
            <mxPoint x="510" y="1223" as="sourcePoint" />
            <mxPoint x="570" y="1171" as="targetPoint" />
          </mxGeometry>
        </mxCell>
        <mxCell id="VIogoXOi0CyeV9zDtBec-38" value="" style="endArrow=classic;html=1;rounded=0;exitX=1;exitY=0.75;exitDx=0;exitDy=0;entryX=0;entryY=0.5;entryDx=0;entryDy=0;" edge="1" parent="1" source="VIogoXOi0CyeV9zDtBec-29" target="VIogoXOi0CyeV9zDtBec-31">
          <mxGeometry width="50" height="50" relative="1" as="geometry">
            <mxPoint x="510" y="1243" as="sourcePoint" />
            <mxPoint x="570" y="1221" as="targetPoint" />
          </mxGeometry>
        </mxCell>
        <mxCell id="VIogoXOi0CyeV9zDtBec-42" value="" style="endArrow=classic;html=1;rounded=0;exitX=1;exitY=0.5;exitDx=0;exitDy=0;entryX=0;entryY=0.5;entryDx=0;entryDy=0;" edge="1" parent="1" source="VIogoXOi0CyeV9zDtBec-3" target="VIogoXOi0CyeV9zDtBec-29">
          <mxGeometry width="50" height="50" relative="1" as="geometry">
            <mxPoint x="510" y="1200" as="sourcePoint" />
            <mxPoint x="560" y="1150" as="targetPoint" />
          </mxGeometry>
        </mxCell>
        <mxCell id="VIogoXOi0CyeV9zDtBec-52" value="&lt;span style=&quot;font-size: 11px;&quot;&gt;Deactivate&lt;/span&gt;&lt;div&gt;&lt;span style=&quot;font-size: 11px;&quot;&gt;Internet Services&lt;/span&gt;&lt;/div&gt;" style="rounded=1;whiteSpace=wrap;html=1;" vertex="1" parent="1">
          <mxGeometry x="410" y="1349" width="90" height="40" as="geometry" />
        </mxCell>
        <mxCell id="VIogoXOi0CyeV9zDtBec-53" value="&lt;span style=&quot;font-size: 11px;&quot;&gt;Suspension&lt;/span&gt;" style="rounded=1;whiteSpace=wrap;html=1;" vertex="1" parent="1">
          <mxGeometry x="560" y="1320" width="90" height="40" as="geometry" />
        </mxCell>
        <mxCell id="VIogoXOi0CyeV9zDtBec-55" value="&lt;span style=&quot;font-size: 11px;&quot;&gt;Deletion&lt;/span&gt;" style="rounded=1;whiteSpace=wrap;html=1;" vertex="1" parent="1">
          <mxGeometry x="560" y="1370" width="90" height="40" as="geometry" />
        </mxCell>
        <mxCell id="VIogoXOi0CyeV9zDtBec-56" value="" style="endArrow=classic;html=1;rounded=0;exitX=1;exitY=0.25;exitDx=0;exitDy=0;entryX=0;entryY=0.5;entryDx=0;entryDy=0;" edge="1" parent="1" source="VIogoXOi0CyeV9zDtBec-52" target="VIogoXOi0CyeV9zDtBec-53">
          <mxGeometry width="50" height="50" relative="1" as="geometry">
            <mxPoint x="500" y="1459" as="sourcePoint" />
            <mxPoint x="550" y="1409" as="targetPoint" />
          </mxGeometry>
        </mxCell>
        <mxCell id="VIogoXOi0CyeV9zDtBec-57" value="" style="endArrow=classic;html=1;rounded=0;exitX=1;exitY=0.75;exitDx=0;exitDy=0;entryX=0;entryY=0.5;entryDx=0;entryDy=0;" edge="1" parent="1" source="VIogoXOi0CyeV9zDtBec-52" target="VIogoXOi0CyeV9zDtBec-55">
          <mxGeometry width="50" height="50" relative="1" as="geometry">
            <mxPoint x="510" y="1379" as="sourcePoint" />
            <mxPoint x="570" y="1327" as="targetPoint" />
          </mxGeometry>
        </mxCell>
        <mxCell id="VIogoXOi0CyeV9zDtBec-59" value="" style="endArrow=classic;html=1;rounded=0;exitX=0.75;exitY=1;exitDx=0;exitDy=0;entryX=0;entryY=0.5;entryDx=0;entryDy=0;" edge="1" parent="1" target="VIogoXOi0CyeV9zDtBec-52" source="VIogoXOi0CyeV9zDtBec-3">
          <mxGeometry width="50" height="50" relative="1" as="geometry">
            <mxPoint x="366" y="1392" as="sourcePoint" />
            <mxPoint x="560" y="1306" as="targetPoint" />
            <Array as="points">
              <mxPoint x="344" y="1369" />
            </Array>
          </mxGeometry>
        </mxCell>
        <mxCell id="VIogoXOi0CyeV9zDtBec-60" value="&lt;span style=&quot;font-size: 11px;&quot;&gt;Services List&lt;/span&gt;" style="rounded=1;whiteSpace=wrap;html=1;" vertex="1" parent="1">
          <mxGeometry x="410" y="1416" width="90" height="40" as="geometry" />
        </mxCell>
        <mxCell id="VIogoXOi0CyeV9zDtBec-61" value="" style="endArrow=classic;html=1;rounded=0;exitX=0.5;exitY=1;exitDx=0;exitDy=0;entryX=0;entryY=0.5;entryDx=0;entryDy=0;" edge="1" parent="1" source="VIogoXOi0CyeV9zDtBec-3" target="VIogoXOi0CyeV9zDtBec-60">
          <mxGeometry width="50" height="50" relative="1" as="geometry">
            <mxPoint x="354" y="1266" as="sourcePoint" />
            <mxPoint x="420" y="1379" as="targetPoint" />
            <Array as="points">
              <mxPoint x="320" y="1436" />
            </Array>
          </mxGeometry>
        </mxCell>
        <mxCell id="VIogoXOi0CyeV9zDtBec-62" value="&lt;span style=&quot;font-size: 11px;&quot;&gt;Services Assurance&lt;/span&gt;" style="rounded=1;whiteSpace=wrap;html=1;" vertex="1" parent="1">
          <mxGeometry x="410" y="1476" width="90" height="40" as="geometry" />
        </mxCell>
        <mxCell id="VIogoXOi0CyeV9zDtBec-63" value="" style="endArrow=classic;html=1;rounded=0;exitX=0.5;exitY=1;exitDx=0;exitDy=0;entryX=0;entryY=0.5;entryDx=0;entryDy=0;" edge="1" parent="1" source="VIogoXOi0CyeV9zDtBec-3" target="VIogoXOi0CyeV9zDtBec-62">
          <mxGeometry width="50" height="50" relative="1" as="geometry">
            <mxPoint x="356" y="1499.58" as="sourcePoint" />
            <mxPoint x="400" y="1499.58" as="targetPoint" />
            <Array as="points">
              <mxPoint x="320" y="1496" />
            </Array>
          </mxGeometry>
        </mxCell>
      </root>
    </mxGraphModel>
  </diagram>
</mxfile>
